<?xml version="1.0" encoding="UTF-8"?>
<!DOCTYPE svg PUBLIC "-//W3C//DTD SVG 1.1//EN" "http://www.w3.org/Graphics/SVG/1.1/DTD/svg11.dtd">
<!-- Creator: CorelDRAW 2019 -->
<svg xmlns="http://www.w3.org/2000/svg" xml:space="preserve" width="420px" height="105px" version="1.1" style="shape-rendering:geometricPrecision; text-rendering:geometricPrecision; image-rendering:optimizeQuality; fill-rule:evenodd; clip-rule:evenodd"
viewBox="0 0 27.88 6.97"
 xmlns:xlink="http://www.w3.org/1999/xlink">
 <defs>
  <style type="text/css">
   <![CDATA[
    .fil0 {fill:#1F3758}
   ]]>
  </style>
 </defs>
 <g id="Слой_x0020_1">
  <metadata id="CorelCorpID_0Corel-Layer"/>
  <path class="fil0" d="M3.48 0c-1.92,0 -3.48,1.56 -3.48,3.48 0,1.93 1.56,3.49 3.48,3.49 1.93,0 3.49,-1.56 3.49,-3.49 0,-1.92 -1.56,-3.48 -3.49,-3.48zm0 0l0 0zm-3.03 3.66l0 0c0.08,0.23 0.74,1.91 1.78,2.6 -1.01,-0.45 -1.72,-1.45 -1.78,-2.6zm0 0l0 0zm3.56 2.82l0 0c-0.89,-0.37 -2.89,-1.43 -3.5,-3.55 0.38,0.73 1.56,2.6 3.79,3.49 -0.1,0.03 -0.19,0.04 -0.29,0.06zm0 0l0 0zm1.21 -0.49l0 0c-3.3,-0.88 -4.41,-3.14 -4.59,-3.54 0.41,-1.18 1.55,-2.01 2.85,-2.01 1.68,0 3.05,1.37 3.05,3.04 0,1.04 -0.52,1.96 -1.31,2.51zm-1.77 -3.77c0.06,0 0.1,0.01 0.14,0.03 0.03,0.01 0.07,0.02 0.12,0.05l-0.31 -0.94c-0.25,-0.07 -0.56,-0.17 -0.77,-0.22 0.14,0.17 0.4,0.52 0.79,1.04l0.03 0.04zm-0.23 0.29c-0.25,-0.13 -0.78,-0.37 -0.77,-0.37 0,-0.02 0.17,0.63 0.17,0.63l0.61 0.01 -0.01 -0.27zm1.14 -0.99l0 0 0.01 0c0.03,0.01 0.04,0.03 0.07,0.04l0.01 0.02c0.03,0.01 0.06,0.02 0.08,0.04 0.04,0.02 0.07,0.05 0.1,0.06l0.03 0.03c0.02,0.02 0.04,0.03 0.06,0.06l0.03 0.01c0.03,0.03 0.07,0.06 0.1,0.08 0.03,0.03 0.05,0.06 0.08,0.08l0.03 0.03c0.03,0.02 0.04,0.04 0.07,0.06l0.01 0.02c0.03,0.03 0.05,0.06 0.08,0.09 0.03,0.04 0.04,0.05 0.06,0.08l0.02 0.01c0.02,0.03 0.02,0.04 0.03,0.06l0.02 0.02c0.02,0.03 0.02,0.06 0.04,0.07l0.07 -0.08c0.01,0 0.01,-0.01 0.01,-0.03 0.01,-0.01 0.01,-0.02 0.01,-0.04l0 0 0 0 0 -0.02c-0.02,-0.1 -0.16,-0.29 -0.39,-0.5 -0.24,-0.22 -0.46,-0.33 -0.54,-0.34l-0.03 0c-0.02,0.01 -0.04,0.01 -0.04,0.01 -0.02,0.02 -0.02,0.02 -0.04,0.03l-0.07 0.08c0.03,0 0.06,0.02 0.09,0.03zm0.19 1.52c0.02,0.04 0.05,0.08 0.07,0.11 0.02,0.04 0.04,0.08 0.04,0.12l0.04 0.03c0.57,0.33 0.94,0.55 1.13,0.67 -0.08,-0.19 -0.21,-0.5 -0.31,-0.74l-0.97 -0.19zm-0.15 0.51l-0.28 0.02 0.1 0.61c0,0 0.66,0.08 0.66,0.09 -0.02,0.02 -0.33,-0.49 -0.48,-0.72zm-0.13 -0.15l0.07 0 0 0 0 0 0 0c0.02,-0.02 0.07,-0.03 0.12,-0.1l0.06 -0.05c0,0 -0.01,-0.02 -0.03,-0.06 -0.03,-0.05 -0.08,-0.12 -0.13,-0.2l-0.13 -0.15 0.55 0.1 0.38 -0.43c0,-0.03 -0.02,-0.11 -0.13,-0.24l-0.02 -0.01c-0.01,-0.03 -0.02,-0.04 -0.02,-0.05l-0.03 -0.02c-0.02,-0.03 -0.03,-0.04 -0.06,-0.05l-0.07 -0.09c-0.02,-0.02 -0.05,-0.05 -0.08,-0.08 -0.04,-0.03 -0.07,-0.05 -0.09,-0.07 -0.02,-0.01 -0.03,-0.02 -0.04,-0.04l-0.05 -0.02c-0.02,-0.03 -0.04,-0.05 -0.06,-0.06l-0.02 -0.01c-0.03,-0.02 -0.05,-0.03 -0.07,-0.04l-0.01 0c-0.14,-0.09 -0.22,-0.11 -0.25,-0.11l-0.38 0.43 0.18 0.54 -0.17 -0.1c-0.09,-0.05 -0.16,-0.09 -0.23,-0.11 -0.03,-0.01 -0.04,-0.02 -0.05,-0.02l-0.04 0.05c0,0 -0.07,0.07 -0.07,0.14 0,0.04 0,0.05 0,0.07l0 0 0.01 0.42c0.03,0.03 0.06,0.04 0.08,0.07l0.03 0.03c0.04,0.02 0.08,0.05 0.11,0.09 0.04,0.03 0.08,0.07 0.11,0.1l0.03 0.03c0.02,0.02 0.05,0.05 0.08,0.08l0.42 -0.04zm-1 0.26c-0.23,-0.21 -0.45,-0.35 -0.56,-0.35l-0.01 0 -0.07 0.09 0.04 0c0.1,0 0.32,0.13 0.55,0.33l0 0c0.22,0.19 0.37,0.39 0.4,0.49l0 0.04 0.06 -0.08 0 0c-0.02,-0.11 -0.17,-0.33 -0.41,-0.52zm0.21 0.59c-0.07,-0.11 -0.19,-0.26 -0.36,-0.4 0,-0.02 0,-0.02 0,-0.02 -0.15,-0.1 -0.28,-0.21 -0.39,-0.27 0,0 0,0 0,0 -0.03,-0.01 -0.07,-0.03 -0.1,-0.04 0.07,0.11 0.21,0.27 0.38,0.44 0.18,0.16 0.36,0.27 0.48,0.31 -0.01,0 -0.01,-0.01 -0.01,-0.02 0,0 0,0 0,0zm0.23 -0.74l0 0c-0.01,-0.02 -0.01,-0.02 -0.03,-0.02 -0.04,-0.05 -0.09,-0.09 -0.15,-0.15 -0.05,-0.05 -0.11,-0.09 -0.16,-0.14 0,0 -0.01,-0.01 -0.01,-0.01l0 0c-0.03,-0.01 -0.06,-0.03 -0.07,-0.04l-0.37 0.03 0 0c0.12,0.05 0.3,0.16 0.48,0.31 0.17,0.17 0.31,0.33 0.37,0.44l0 -0.37c-0.03,-0.01 -0.04,-0.04 -0.06,-0.05zm20.92 0.18l0 0 0.22 -0.55 0.21 0.55 -0.43 0zm0.48 -1.18l-0.51 0 -0.82 1.93 0.56 0 0.13 -0.34 0.74 0 0.14 0.34 0.57 0 -0.81 -1.93zm0.85 1.92c0.06,0.01 0.19,0.04 0.32,0.04 0.37,0 0.63,-0.23 0.63,-1.4l0 -0.08 0.44 0 0 1.45 0.53 0 0 -1.91 -1.47 0 0 0.26c0,1.16 -0.14,1.24 -0.29,1.24 -0.02,0 -0.1,-0.01 -0.12,-0.01l-0.04 0.41zm-2.85 -1.19l-0.69 0 0 -0.71 -0.53 0 0 1.91 0.53 0 0 -0.72 0.69 0 0 0.72 0.53 0 0 -1.91 -0.53 0 0 0.71zm-2.87 1.2l0.53 0 0 -1.45 0.85 0 0 -0.46 -1.38 0 0 1.91zm-1.6 -0.83l0 -1.08 -0.52 0 0 1.91 0.49 0 0.74 -1.07 0 1.07 0.53 0 0 -1.91 -0.5 0 -0.74 1.08zm-1.62 0.39c-0.27,0 -0.46,-0.23 -0.46,-0.51 0,-0.29 0.19,-0.52 0.46,-0.52 0.18,0 0.31,0.09 0.42,0.23l0.39 -0.31c-0.17,-0.23 -0.41,-0.4 -0.8,-0.4 -0.58,0 -1.01,0.44 -1.01,1 0,0.57 0.44,0.99 0.98,0.99 0.43,0 0.67,-0.18 0.85,-0.43l-0.4 -0.29c-0.11,0.14 -0.23,0.24 -0.43,0.24zm-2.25 0l0 0c-0.29,0 -0.49,-0.24 -0.49,-0.51 0,-0.29 0.19,-0.52 0.48,-0.52 0.3,0 0.5,0.24 0.5,0.52 0,0.28 -0.2,0.51 -0.49,0.51zm0 -1.51c-0.59,0 -1.04,0.45 -1.04,1 0,0.55 0.44,0.99 1.03,0.99 0.59,0 1.04,-0.44 1.04,-0.99 0,-0.56 -0.44,-1 -1.03,-1zm-2.04 0.99l0 0 -0.25 0 0 -0.51 0.25 0c0.19,0 0.31,0.09 0.31,0.26 0,0.15 -0.12,0.25 -0.31,0.25zm0.04 -0.95l-0.82 0 0 1.91 0.53 0 0 -0.54 0.26 0c0.48,0 0.83,-0.24 0.83,-0.69 0,-0.43 -0.31,-0.68 -0.8,-0.68zm-2.47 1.91l0.53 0 0 -1.45 0.84 0 0 -0.46 -1.37 0 0 1.91zm-1.48 -0.75l0 0 0.21 -0.55 0.22 0.55 -0.43 0zm-0.04 -1.18l-0.81 1.93 0.56 0 0.13 -0.34 0.74 0 0.14 0.34 0.57 0 -0.82 -1.93 -0.51 0z"/>
 </g>
</svg>
