<?xml version="1.0" encoding="UTF-8"?>
<!DOCTYPE svg PUBLIC "-//W3C//DTD SVG 1.1//EN" "http://www.w3.org/Graphics/SVG/1.1/DTD/svg11.dtd">
<!-- Creator: CorelDRAW 2020 (64-Bit) -->
<svg xmlns="http://www.w3.org/2000/svg" xml:space="preserve" width="300mm" height="150mm" version="1.1" style="shape-rendering:geometricPrecision; text-rendering:geometricPrecision; image-rendering:optimizeQuality; fill-rule:evenodd; clip-rule:evenodd"
viewBox="0 0 30000 15000"
 xmlns:xlink="http://www.w3.org/1999/xlink"
 xmlns:xodm="http://www.corel.com/coreldraw/odm/2003">
 <defs>
  <style type="text/css">
   <![CDATA[
    .str0 {stroke:#006633;stroke-width:8;stroke-miterlimit:22.9256}
    .fil0 {fill:white}
   ]]>
  </style>
    <clipPath id="id0">
     <path d="M11460 1206l10651 0 0 9426 -10651 0 0 -9426z"/>
    </clipPath>
 </defs>
 <g id="Слой_x0020_1">
  <metadata id="CorelCorpID_0Corel-Layer"/>
  <g id="_2168062080688">
   <g style="clip-path:url(#id0)">
    <image x="11460" y="1206" width="10651" height="9426" xlink:href="icon_Images\icon_ImgID1.png"/>
   </g>
  </g>
  <path class="fil0 str0" d="M14937 2711c0,214 164,366 358,388 158,17 387,0 552,-2l0 1172c0,210 -194,367 -386,400 -195,34 -380,16 -570,230 -105,119 -142,260 -161,418 -10,81 -58,55 -152,54 -266,-3 -534,0 -800,0 6,-70 582,-971 653,-1085 152,-258 134,-32 382,-32 95,0 174,-69 215,-129 52,-75 52,-190 10,-275 -23,-47 -291,-309 -346,-358 -65,-58 -164,-70 -257,-43 -175,51 -1884,2001 -1884,2005l0 1558c0,159 43,281 96,386 46,92 130,217 207,276 52,40 69,63 134,101 178,105 351,147 584,147 461,0 921,-14 1379,-14 0,217 -17,445 78,639 131,269 396,436 736,436l993 0c0,206 -7,294 148,445 137,134 416,106 611,106 279,0 469,-176 469,-455 0,-245 45,-534 -116,-726 -152,-181 -508,-129 -726,-129 -121,0 -257,96 -310,173 -31,46 -65,120 -74,175 -44,268 231,204 -982,204 -338,0 -621,-215 -621,-565 0,-364 -48,-333 110,-414 47,-24 85,-53 124,-83 67,-51 150,-140 197,-216 118,-192 161,-402 161,-625l0 -441c0,-34 -31,-55 28,-55l538 0c0,281 -38,713 73,961 14,31 24,61 37,87 175,338 513,497 951,497l1103 0c143,0 329,-21 432,-65 687,-292 603,-839 603,-1480l993 0c490,0 668,-552 349,-873 -91,-91 -197,-135 -376,-134 -345,2 -690,0 -1034,0 -363,-424 -1699,-1881 -1794,-1916 -133,-49 -226,-15 -319,79l-159 159c-80,83 -183,145 -183,286 0,162 135,276 290,276 326,0 88,-419 637,494 56,93 349,535 370,623l-3351 0c0,-224 92,-355 243,-433 158,-81 390,-50 546,-144 139,-84 252,-214 306,-384 45,-141 25,-924 22,-1178 -2,-171 17,-138 386,-138 141,0 206,14 309,-36 233,-114 310,-477 88,-663 -50,-42 -159,-100 -245,-100l-1255 0c-221,0 -400,191 -400,414zm-2179 4275c0,129 31,234 76,324 54,109 96,145 176,224 152,153 395,182 617,182 309,0 1160,29 1407,-41 252,-72 496,-355 496,-621l0 -1476 -2772 0 0 1407zm179 14c0,307 258,538 565,538l1269 0c247,0 476,-126 554,-356 69,-205 39,-1145 39,-1423l-2427 0 0 1241zm3972 -1034l0 979c0,240 146,386 386,386l1241 0c126,0 208,-34 278,-94 70,-59 108,-152 108,-278l0 -993c-672,0 -1343,0 -2014,0zm-3765 1021c0,220 162,345 386,345l1241 0c428,0 386,-381 386,-648 0,-338 -27,-388 0,-717l-745 0 -618 927c-53,80 -57,107 -155,107 -39,0 -83,-58 -83,-97 0,-49 108,-199 142,-244 57,-76 102,-149 156,-230l154 -232c53,-80 102,-154 154,-232l-303 0c-12,45 -186,293 -226,353 -21,32 -38,51 -57,81 -25,38 -26,61 -68,85 -74,42 -159,-10 -159,-91 0,-70 242,-351 262,-428l-469 0 0 1021zm3379 -1407l0 1352c0,387 202,632 488,739 205,77 1182,53 1547,43 434,-12 751,-317 751,-727 0,-207 0,-414 0,-621 -121,-28 -130,-56 -179,-69 0,256 33,679 -32,878 -32,99 -118,205 -196,259 -97,66 -208,104 -365,104l-1241 0c-177,0 -291,-49 -394,-130 -253,-198 -199,-534 -199,-850l0 -800 2193 0c47,0 53,-72 110,-179 -828,0 -1655,0 -2482,0zm-3613 -207l621 0c24,-102 674,-1162 803,-1321 79,-96 230,-131 348,-66 47,26 60,62 117,62 59,0 76,-71 45,-113 -27,-38 -261,-269 -321,-301 -248,131 -1613,1737 -1614,1738zm4289 -1393c92,174 122,-28 317,-28 184,0 254,159 327,280 138,232 665,1014 694,1140l621 0c-19,-72 -1257,-1390 -1383,-1514 -245,-243 -175,-301 -421,-55 -58,58 -117,103 -155,176zm-234 4675l0 455c0,102 81,207 179,207l455 0c217,0 179,-354 179,-469 0,-480 -80,-414 -621,-414 -59,0 -109,38 -137,70 -31,34 -56,87 -56,151zm-1627 -5765l1255 0c214,0 242,-386 -41,-386l-1186 0c-282,0 -278,386 -28,386zm414 3282l565 0 0 -593 -565 0 0 593zm3406 -400l1627 0c-26,-111 -144,-193 -262,-193l-1117 0c-114,0 -240,90 -248,193zm262 400l1076 0c142,0 263,-79 290,-193l-1627 0c9,104 149,193 262,193z"/>
 </g>
</svg>
